<?xml version="1.0" encoding="UTF-8"?>
<!DOCTYPE svg PUBLIC "-//W3C//DTD SVG 1.1//EN" "http://www.w3.org/Graphics/SVG/1.1/DTD/svg11.dtd">
<svg xmlns="http://www.w3.org/2000/svg" version="1.1" width="533px" height="301px" style="shape-rendering:geometricPrecision; text-rendering:geometricPrecision; image-rendering:optimizeQuality; fill-rule:evenodd; clip-rule:evenodd" xmlns:xlink="http://www.w3.org/1999/xlink">
<g><path style="opacity:0.134" fill="#faf9f8" d="M 532.5,34.5 C 532.5,35.8333 532.5,37.1667 532.5,38.5C 528.648,39.8783 528.648,41.5449 532.5,43.5C 532.5,45.5 532.5,47.5 532.5,49.5C 529.833,51.1667 529.833,52.8333 532.5,54.5C 532.5,55.1667 532.5,55.8333 532.5,56.5C 530.521,55.1879 528.855,53.5212 527.5,51.5C 529.041,49.796 530.375,47.9626 531.5,46C 530.536,44.0362 529.203,42.3695 527.5,41C 528.101,39.395 529.101,38.0616 530.5,37C 517.54,37.0752 507.373,31.9085 500,21.5C 496.881,15.5019 494.381,9.33523 492.5,3C 341.167,2.33333 189.833,2.33333 38.5,3C 34.6365,24.1978 21.9699,35.5312 0.5,37C 4.46684,39.9397 4.1335,42.4397 -0.5,44.5C -0.5,43.8333 -0.5,43.1667 -0.5,42.5C 2.16667,41.1667 2.16667,39.8333 -0.5,38.5C -0.5,37.1667 -0.5,35.8333 -0.5,34.5C 12.9249,35.5367 23.4249,30.5367 31,19.5C 33.3991,13.7252 35.5657,7.89186 37.5,2C 189.5,1.33333 341.5,1.33333 493.5,2C 495.849,7.37029 498.015,12.8703 500,18.5C 507.356,30.594 518.189,35.9274 532.5,34.5 Z"/></g>
<g><path style="opacity:1" fill="#c5c6c8" d="M 532.5,56.5 C 532.5,57.1667 532.5,57.8333 532.5,58.5C 527.262,61.2968 527.262,64.2968 532.5,67.5C 532.5,68.1667 532.5,68.8333 532.5,69.5C 527.262,72.2968 527.262,75.2968 532.5,78.5C 532.5,79.1667 532.5,79.8333 532.5,80.5C 528.854,81.4615 527.687,83.7949 529,87.5C 530.113,88.305 531.279,88.9717 532.5,89.5C 532.5,90.1667 532.5,90.8333 532.5,91.5C 527.3,94.4067 527.3,97.4067 532.5,100.5C 532.5,101.167 532.5,101.833 532.5,102.5C 527.3,105.407 527.3,108.407 532.5,111.5C 532.5,112.167 532.5,112.833 532.5,113.5C 527.247,116.745 527.247,119.745 532.5,122.5C 532.5,123.167 532.5,123.833 532.5,124.5C 527.167,127.5 527.167,130.5 532.5,133.5C 532.5,134.167 532.5,134.833 532.5,135.5C 527.247,138.745 527.247,141.745 532.5,144.5C 532.5,145.167 532.5,145.833 532.5,146.5C 525.873,149.593 525.873,152.593 532.5,155.5C 532.5,156.167 532.5,156.833 532.5,157.5C 527.247,160.745 527.247,163.745 532.5,166.5C 532.5,167.5 532.5,168.5 532.5,169.5C 529.045,170.128 527.878,172.128 529,175.5C 529.816,176.823 530.983,177.489 532.5,177.5C 532.5,178.5 532.5,179.5 532.5,180.5C 529.045,181.128 527.878,183.128 529,186.5C 530.113,187.305 531.279,187.972 532.5,188.5C 532.5,189.5 532.5,190.5 532.5,191.5C 530.182,191.818 528.848,193.152 528.5,195.5C 529.277,197.447 530.277,199.28 531.5,201C 527.217,205.011 527.55,208.511 532.5,211.5C 532.5,212.167 532.5,212.833 532.5,213.5C 530.182,213.818 528.848,215.152 528.5,217.5C 529.277,219.447 530.277,221.28 531.5,223C 527.217,227.011 527.55,230.511 532.5,233.5C 532.5,233.833 532.5,234.167 532.5,234.5C 527.55,237.489 527.217,240.989 531.5,245C 530.277,246.72 529.277,248.553 528.5,250.5C 528.722,252.055 529.389,253.389 530.5,254.5C 515.983,255.006 504.817,261.34 497,273.5C 496.25,278.599 494.75,283.433 492.5,288C 341.167,288.667 189.833,288.667 38.5,288C 34.3334,267.388 21.6668,256.221 0.5,254.5C 4.50767,251.472 4.17434,248.805 -0.5,246.5C -0.5,245.5 -0.5,244.5 -0.5,243.5C 3.5,240.833 3.5,238.167 -0.5,235.5C -0.5,234.5 -0.5,233.5 -0.5,232.5C 4.66891,229.961 4.66891,227.295 -0.5,224.5C -0.5,223.5 -0.5,222.5 -0.5,221.5C 4.83333,218.833 4.83333,216.167 -0.5,213.5C -0.5,212.5 -0.5,211.5 -0.5,210.5C 3.5,207.833 3.5,205.167 -0.5,202.5C -0.5,201.5 -0.5,200.5 -0.5,199.5C 4.79538,196.719 4.79538,194.052 -0.5,191.5C -0.5,190.5 -0.5,189.5 -0.5,188.5C 4.70947,185.616 4.70947,182.949 -0.5,180.5C -0.5,179.5 -0.5,178.5 -0.5,177.5C 4.79538,174.719 4.79538,172.052 -0.5,169.5C -0.5,168.167 -0.5,166.833 -0.5,165.5C 4.81459,163.211 4.81459,160.877 -0.5,158.5C -0.5,157.167 -0.5,155.833 -0.5,154.5C 4.81459,152.211 4.81459,149.877 -0.5,147.5C -0.5,146.167 -0.5,144.833 -0.5,143.5C 4.68488,141.451 4.68488,139.118 -0.5,136.5C -0.5,135.167 -0.5,133.833 -0.5,132.5C 4.81459,130.123 4.81459,127.789 -0.5,125.5C -0.5,124.167 -0.5,122.833 -0.5,121.5C 4.81459,119.211 4.81459,116.877 -0.5,114.5C -0.5,113.167 -0.5,111.833 -0.5,110.5C 4.83333,108.167 4.83333,105.833 -0.5,103.5C -0.5,102.167 -0.5,100.833 -0.5,99.5C 4.83333,97.1667 4.83333,94.8333 -0.5,92.5C -0.5,91.1667 -0.5,89.8333 -0.5,88.5C 4.72868,86.093 4.72868,83.4263 -0.5,80.5C -0.5,79.5 -0.5,78.5 -0.5,77.5C 4.70947,75.0507 4.70947,72.384 -0.5,69.5C -0.5,68.5 -0.5,67.5 -0.5,66.5C 4.70947,64.0507 4.70947,61.384 -0.5,58.5C -0.5,57.5 -0.5,56.5 -0.5,55.5C 4.83333,52.8333 4.83333,50.1667 -0.5,47.5C -0.5,46.5 -0.5,45.5 -0.5,44.5C 4.1335,42.4397 4.46684,39.9397 0.5,37C 21.9699,35.5312 34.6365,24.1978 38.5,3C 189.833,2.33333 341.167,2.33333 492.5,3C 494.381,9.33523 496.881,15.5019 500,21.5C 507.373,31.9085 517.54,37.0752 530.5,37C 529.101,38.0616 528.101,39.395 527.5,41C 529.203,42.3695 530.536,44.0362 531.5,46C 530.375,47.9626 529.041,49.796 527.5,51.5C 528.855,53.5212 530.521,55.1879 532.5,56.5 Z"/></g>
<g><path style="opacity:1" fill="#c3c8c8" d="M 61.5,5.5 C 62.2216,5.91753 62.7216,6.5842 63,7.5C 63.6667,4.83333 64.3333,4.83333 65,7.5C 65.6667,4.83333 66.3333,4.83333 67,7.5C 67.6667,4.83333 68.3333,4.83333 69,7.5C 69.6667,4.83333 70.3333,4.83333 71,7.5C 71.6667,4.83333 72.3333,4.83333 73,7.5C 73.6667,4.83333 74.3333,4.83333 75,7.5C 75.6667,4.83333 76.3333,4.83333 77,7.5C 77.6667,4.83333 78.3333,4.83333 79,7.5C 79.6667,4.83333 80.3333,4.83333 81,7.5C 81.6667,4.83333 82.3333,4.83333 83,7.5C 83.3333,6.83333 83.6667,6.16667 84,5.5C 92.3333,6.16667 100.667,6.83333 109,7.5C 109.667,4.83333 110.333,4.83333 111,7.5C 111.667,4.83333 112.333,4.83333 113,7.5C 113.667,4.83333 114.333,4.83333 115,7.5C 115.667,4.83333 116.333,4.83333 117,7.5C 117.667,4.83333 118.333,4.83333 119,7.5C 119.667,4.83333 120.333,4.83333 121,7.5C 121.667,4.83333 122.333,4.83333 123,7.5C 123.667,4.83333 124.333,4.83333 125,7.5C 125.667,4.83333 126.333,4.83333 127,7.5C 127.667,4.83333 128.333,4.83333 129,7.5C 129.667,4.83333 130.333,4.83333 131,7.5C 131.667,4.83333 132.333,4.83333 133,7.5C 133.667,4.83333 134.333,4.83333 135,7.5C 135.667,4.83333 136.333,4.83333 137,7.5C 137.667,4.83333 138.333,4.83333 139,7.5C 139.667,4.83333 140.333,4.83333 141,7.5C 141.667,4.83333 142.333,4.83333 143,7.5C 143.667,4.83333 144.333,4.83333 145,7.5C 145.667,4.83333 146.333,4.83333 147,7.5C 147.667,4.83333 148.333,4.83333 149,7.5C 195.075,6.43794 240.408,6.43794 285,7.5C 285.667,4.83333 286.333,4.83333 287,7.5C 287.667,4.83333 288.333,4.83333 289,7.5C 289.667,4.83333 290.333,4.83333 291,7.5C 291.667,4.83333 292.333,4.83333 293,7.5C 293.667,4.83333 294.333,4.83333 295,7.5C 295.667,4.83333 296.333,4.83333 297,7.5C 297.667,4.83333 298.333,4.83333 299,7.5C 299.667,4.83333 300.333,4.83333 301,7.5C 301.667,4.83333 302.333,4.83333 303,7.5C 303.667,4.83333 304.333,4.83333 305,7.5C 305.667,4.83333 306.333,4.83333 307,7.5C 307.667,4.83333 308.333,4.83333 309,7.5C 309.667,4.83333 310.333,4.83333 311,7.5C 311.667,4.83333 312.333,4.83333 313,7.5C 313.667,4.83333 314.333,4.83333 315,7.5C 315.667,4.83333 316.333,4.83333 317,7.5C 317.667,4.83333 318.333,4.83333 319,7.5C 319.667,4.83333 320.333,4.83333 321,7.5C 321.667,4.83333 322.333,4.83333 323,7.5C 323.667,4.83333 324.333,4.83333 325,7.5C 325.667,4.83333 326.333,4.83333 327,7.5C 327.667,4.83333 328.333,4.83333 329,7.5C 329.667,4.83333 330.333,4.83333 331,7.5C 331.667,4.83333 332.333,4.83333 333,7.5C 333.667,4.83333 334.333,4.83333 335,7.5C 335.667,4.83333 336.333,4.83333 337,7.5C 337.667,4.83333 338.333,4.83333 339,7.5C 339.667,4.83333 340.333,4.83333 341,7.5C 341.667,4.83333 342.333,4.83333 343,7.5C 343.667,4.83333 344.333,4.83333 345,7.5C 345.333,6.83333 345.667,6.16667 346,5.5C 346.5,6.66667 347.333,7.5 348.5,8C 353.833,8.66667 359.167,8.66667 364.5,8C 365.362,5.26561 366.195,5.09894 367,7.5C 367.667,4.83333 368.333,4.83333 369,7.5C 369.667,4.83333 370.333,4.83333 371,7.5C 371.667,4.83333 372.333,4.83333 373,7.5C 373.667,4.83333 374.333,4.83333 375,7.5C 375.667,4.83333 376.333,4.83333 377,7.5C 377.667,4.83333 378.333,4.83333 379,7.5C 379.667,4.83333 380.333,4.83333 381,7.5C 381.667,4.83333 382.333,4.83333 383,7.5C 383.667,4.83333 384.333,4.83333 385,7.5C 385.667,4.83333 386.333,4.83333 387,7.5C 387.667,4.83333 388.333,4.83333 389,7.5C 389.667,4.83333 390.333,4.83333 391,7.5C 391.667,4.83333 392.333,4.83333 393,7.5C 393.667,4.83333 394.333,4.83333 395,7.5C 395.667,4.83333 396.333,4.83333 397,7.5C 397.667,4.83333 398.333,4.83333 399,7.5C 399.667,4.83333 400.333,4.83333 401,7.5C 401.667,4.83333 402.333,4.83333 403,7.5C 403.667,4.83333 404.333,4.83333 405,7.5C 405.667,4.83333 406.333,4.83333 407,7.5C 407.667,4.83333 408.333,4.83333 409,7.5C 409.667,4.83333 410.333,4.83333 411,7.5C 411.667,4.83333 412.333,4.83333 413,7.5C 413.667,4.83333 414.333,4.83333 415,7.5C 415.667,4.83333 416.333,4.83333 417,7.5C 417.667,4.83333 418.333,4.83333 419,7.5C 419.667,4.83333 420.333,4.83333 421,7.5C 421.667,4.83333 422.333,4.83333 423,7.5C 423.667,4.83333 424.333,4.83333 425,7.5C 425.667,4.83333 426.333,4.83333 427,7.5C 427.667,4.83333 428.333,4.83333 429,7.5C 429.667,4.83333 430.333,4.83333 431,7.5C 431.667,4.83333 432.333,4.83333 433,7.5C 433.667,4.83333 434.333,4.83333 435,7.5C 435.667,4.83333 436.333,4.83333 437,7.5C 437.667,4.83333 438.333,4.83333 439,7.5C 439.667,4.83333 440.333,4.83333 441,7.5C 441.333,6.83333 441.667,6.16667 442,5.5C 442.519,6.51556 443.353,7.18223 444.5,7.5C 448.824,6.24769 453.157,6.24769 457.5,7.5C 459.044,7.21039 460.377,6.54373 461.5,5.5C 462.425,6.64055 463.259,6.64055 464,5.5C 464.667,8.16667 465.333,8.16667 466,5.5C 466.333,6.16667 466.667,6.83333 467,7.5C 467.667,6.16667 468.333,6.16667 469,7.5C 469.667,4.83333 470.333,4.83333 471,7.5C 471.667,4.83333 472.333,4.83333 473,7.5C 473.667,4.83333 474.333,4.83333 475,7.5C 475.667,4.83333 476.333,4.83333 477,7.5C 477.667,4.83333 478.333,4.83333 479,7.5C 479.667,4.83333 480.333,4.83333 481,7.5C 481.667,4.83333 482.333,4.83333 483,7.5C 483.667,4.83333 484.333,4.83333 485,7.5C 485.667,4.83333 486.333,4.83333 487,7.5C 487.333,6.83333 487.667,6.16667 488,5.5C 489.063,6.43782 490.23,7.43782 491.5,8.5C 491.192,9.30806 490.692,9.97473 490,10.5C 486,10.5 482,10.5 478,10.5C 471.787,8.52691 465.62,8.52691 459.5,10.5C 455.709,7.88474 451.875,7.88474 448,10.5C 389.835,9.82756 331.335,9.1609 272.5,8.5C 269.683,9.23705 266.85,9.90372 264,10.5C 228.107,9.94774 190.94,9.28107 152.5,8.5C 127.155,9.35637 101.822,9.6897 76.5,9.5C 71.1358,9.32947 65.8025,8.82947 60.5,8C 61.2524,7.32924 61.5858,6.4959 61.5,5.5 Z"/></g>
<g><path style="opacity:1" fill="#858688" d="M 62.5,28.5 C 197.333,27.334 332.333,27.1673 467.5,28C 472.094,29.7616 475.928,32.5949 479,36.5C 480.128,38.3453 480.628,40.3453 480.5,42.5C 480.5,45.1667 480.5,47.8333 480.5,50.5C 479.996,115.14 479.163,179.807 478,244.5C 477.667,177.833 477.333,111.167 477,44.5C 476.833,112.335 476.333,180.001 475.5,247.5C 475.667,178.499 475.5,109.499 475,40.5C 472.746,34.7428 468.579,31.4095 462.5,30.5C 463.463,29.6365 463.463,28.9698 462.5,28.5C 329.344,28.5042 196.011,28.5042 62.5,28.5 Z"/></g>
<g><path style="opacity:1" fill="#7b7c7e" d="M 62.5,28.5 C 196.011,28.5042 329.344,28.5042 462.5,28.5C 463.463,28.9698 463.463,29.6365 462.5,30.5C 329.472,30.1718 196.472,30.5051 63.5,31.5C 62.8902,30.609 62.5569,29.609 62.5,28.5 Z"/></g>
<g><path style="opacity:1" fill="#c4c5c7" d="M 462.5,30.5 C 468.579,31.4095 472.746,34.7428 475,40.5C 475.5,109.499 475.667,178.499 475.5,247.5C 474.999,254.508 471.332,259.008 464.5,261C 331.127,261.83 197.793,261.663 64.5,260.5C 60.7549,258.082 58.0882,254.749 56.5,250.5C 56.1764,179.804 56.5097,109.138 57.5,38.5C 58.8103,35.5268 60.8103,33.1935 63.5,31.5C 196.472,30.5051 329.472,30.1718 462.5,30.5 Z"/></g>
<g><path style="opacity:0.2" fill="#f8f7f6" d="M -0.5,47.5 C 4.83333,50.1667 4.83333,52.8333 -0.5,55.5C -0.5,54.8333 -0.5,54.1667 -0.5,53.5C 2.16667,52.1667 2.16667,50.8333 -0.5,49.5C -0.5,48.8333 -0.5,48.1667 -0.5,47.5 Z"/></g>
<g><path style="opacity:1" fill="#848587" d="M 118.5,53.5 C 120.969,54.6067 121.969,56.6067 121.5,59.5C 127.636,59.0277 128.469,60.361 124,63.5C 123.504,65.0349 123.67,66.5349 124.5,68C 124.167,68.5 123.833,69 123.5,69.5C 120.624,66.9199 117.79,66.9199 115,69.5C 115.192,65.5187 113.692,62.5187 110.5,60.5C 115.248,60.3921 117.915,58.0588 118.5,53.5 Z"/></g>
<g><path style="opacity:1" fill="#797a7c" d="M 183.5,52.5 C 184.833,82.6593 185.5,113.159 185.5,144C 185.5,174.841 184.833,205.341 183.5,235.5C 183.5,174.5 183.5,113.5 183.5,52.5 Z"/></g>
<g><path style="opacity:1" fill="#adadaf" d="M 57.5,38.5 C 56.5097,109.138 56.1764,179.804 56.5,250.5C 55.3345,180.668 55.1679,110.668 56,40.5C 56.2784,39.5842 56.7784,38.9175 57.5,38.5 Z"/></g>
<g><path style="opacity:1" fill="#909193" d="M 183.5,52.5 C 184.209,51.596 185.209,51.2627 186.5,51.5C 186.5,113.167 186.5,174.833 186.5,236.5C 185.209,236.737 184.209,236.404 183.5,235.5C 184.833,205.341 185.5,174.841 185.5,144C 185.5,113.159 184.833,82.6593 183.5,52.5 Z"/></g>
<g><path style="opacity:1" fill="#848486" d="M 62.5,28.5 C 62.5569,29.609 62.8902,30.609 63.5,31.5C 60.8103,33.1935 58.8103,35.5268 57.5,38.5C 56.7784,38.9175 56.2784,39.5842 56,40.5C 55.1679,110.668 55.3345,180.668 56.5,250.5C 58.0882,254.749 60.7549,258.082 64.5,260.5C 62.8212,260.285 61.8212,260.952 61.5,262.5C 61.1667,262.5 60.8333,262.5 60.5,262.5C 54.8121,259.13 51.6454,254.13 51,247.5C 50.3333,179.167 50.3333,110.833 51,42.5C 52.1348,35.5389 55.9681,30.8722 62.5,28.5 Z"/></g>
<g><path style="opacity:1" fill="#a6a7a9" d="M 83.5,55.5 C 81.9743,56.1047 80.9743,57.2714 80.5,59C 78.7444,59.2022 77.0777,59.7022 75.5,60.5C 75.8627,61.1835 76.1961,61.8501 76.5,62.5C 74.0882,62.3059 73.0882,60.9726 73.5,58.5C 75.604,58.7989 77.604,58.4656 79.5,57.5C 80.0256,55.7697 81.0256,54.4363 82.5,53.5C 83.2975,53.9569 83.6309,54.6236 83.5,55.5 Z"/></g>
<g><path style="opacity:1" fill="#a2a3a5" d="M 480.5,42.5 C 481.665,111.665 481.832,180.999 481,250.5C 480.722,251.416 480.222,252.082 479.5,252.5C 480.49,185.196 480.823,117.862 480.5,50.5C 480.5,47.8333 480.5,45.1667 480.5,42.5 Z"/></g>
<g><path style="opacity:1" fill="#828385" d="M 83.5,55.5 C 84.4345,56.5676 84.7678,57.901 84.5,59.5C 86.604,59.2011 88.604,59.5344 90.5,60.5C 88.3358,63.0285 87.0025,66.0285 86.5,69.5C 83.7063,66.8997 80.873,66.8997 78,69.5C 77.5038,67.9651 77.6705,66.4651 78.5,65C 77.9444,63.9889 77.2778,63.1556 76.5,62.5C 76.1961,61.8501 75.8627,61.1835 75.5,60.5C 77.0777,59.7022 78.7444,59.2022 80.5,59C 80.9743,57.2714 81.9743,56.1047 83.5,55.5 Z"/></g>
<g><path style="opacity:0.061" fill="#f9f9f8" d="M 532.5,58.5 C 532.5,59.1667 532.5,59.8333 532.5,60.5C 529.833,62.1667 529.833,63.8333 532.5,65.5C 532.5,66.1667 532.5,66.8333 532.5,67.5C 527.262,64.2968 527.262,61.2968 532.5,58.5 Z"/></g>
<g><path style="opacity:1" fill="#838486" d="M 155.5,53.5 C 157.614,54.784 158.614,56.784 158.5,59.5C 164.636,59.0277 165.469,60.361 161,63.5C 160.922,65.6565 160.755,67.6565 160.5,69.5C 157.624,66.9199 154.79,66.9199 152,69.5C 151.667,67.5 151.333,65.5 151,63.5C 149.294,62.6921 148.461,61.3588 148.5,59.5C 150.5,59.5 152.5,59.5 154.5,59.5C 154.325,57.3792 154.659,55.3792 155.5,53.5 Z"/></g>
<g><path style="opacity:0.196" fill="#f6f5f4" d="M -0.5,58.5 C 4.70947,61.384 4.70947,64.0507 -0.5,66.5C -0.5,65.8333 -0.5,65.1667 -0.5,64.5C 2.16667,63.1667 2.16667,61.8333 -0.5,60.5C -0.5,59.8333 -0.5,59.1667 -0.5,58.5 Z"/></g>
<g><path style="opacity:0.112" fill="#f6f6f5" d="M -0.5,69.5 C 4.70947,72.384 4.70947,75.0507 -0.5,77.5C -0.5,76.8333 -0.5,76.1667 -0.5,75.5C 2.16667,74.1667 2.16667,72.8333 -0.5,71.5C -0.5,70.8333 -0.5,70.1667 -0.5,69.5 Z"/></g>
<g><path style="opacity:0.075" fill="#f8f8f7" d="M 532.5,69.5 C 532.5,70.1667 532.5,70.8333 532.5,71.5C 529.833,73.1667 529.833,74.8333 532.5,76.5C 532.5,77.1667 532.5,77.8333 532.5,78.5C 527.262,75.2968 527.262,72.2968 532.5,69.5 Z"/></g>
<g><path style="opacity:1" fill="#848486" d="M 334.5,78.5 C 341.5,78.5 348.5,78.5 355.5,78.5C 355.5,82.5 355.5,86.5 355.5,90.5C 353.5,90.5 351.5,90.5 349.5,90.5C 349.5,92.8333 349.5,95.1667 349.5,97.5C 351.5,97.5 353.5,97.5 355.5,97.5C 355.5,101.5 355.5,105.5 355.5,109.5C 348.5,109.5 341.5,109.5 334.5,109.5C 334.5,105.5 334.5,101.5 334.5,97.5C 336.5,97.5 338.5,97.5 340.5,97.5C 340.5,95.1667 340.5,92.8333 340.5,90.5C 338.5,90.5 336.5,90.5 334.5,90.5C 334.5,86.5 334.5,82.5 334.5,78.5 Z"/></g>
<g><path style="opacity:1" fill="#848486" d="M 422.5,109.5 C 418.833,109.5 415.167,109.5 411.5,109.5C 411.5,108.5 411.5,107.5 411.5,106.5C 412.873,97.0096 414.873,87.6763 417.5,78.5C 423.5,78.5 429.5,78.5 435.5,78.5C 437.488,88.7985 439.155,99.1318 440.5,109.5C 437.167,109.5 433.833,109.5 430.5,109.5C 430.453,106.432 429.953,103.432 429,100.5C 427.301,99.5939 425.467,99.2606 423.5,99.5C 423.813,103.042 423.479,106.375 422.5,109.5 Z"/></g>
<g><path style="opacity:0.098" fill="#f5f5f4" d="M -0.5,80.5 C 4.72868,83.4263 4.72868,86.093 -0.5,88.5C -0.5,87.8333 -0.5,87.1667 -0.5,86.5C 2.16667,85.5 2.16667,84.5 -0.5,83.5C -0.5,82.5 -0.5,81.5 -0.5,80.5 Z"/></g>
<g><path style="opacity:1" fill="#828284" d="M 389.5,78.5 C 396.167,78.5 402.833,78.5 409.5,78.5C 409.5,82.5 409.5,86.5 409.5,90.5C 407.833,90.5 406.167,90.5 404.5,90.5C 404.5,92.8333 404.5,95.1667 404.5,97.5C 406.167,97.5 407.833,97.5 409.5,97.5C 409.5,101.5 409.5,105.5 409.5,109.5C 402.833,109.5 396.167,109.5 389.5,109.5C 389.5,105.833 389.5,102.167 389.5,98.5C 391.5,98.5 393.5,98.5 395.5,98.5C 395.806,95.6146 395.473,92.9479 394.5,90.5C 392.833,90.5 391.167,90.5 389.5,90.5C 389.5,86.5 389.5,82.5 389.5,78.5 Z"/></g>
<g><path style="opacity:0.061" fill="#f7f6f5" d="M 532.5,80.5 C 532.5,81.1667 532.5,81.8333 532.5,82.5C 529.833,84.1667 529.833,85.8333 532.5,87.5C 532.5,88.1667 532.5,88.8333 532.5,89.5C 531.279,88.9717 530.113,88.305 529,87.5C 527.687,83.7949 528.854,81.4615 532.5,80.5 Z"/></g>
<g><path style="opacity:1" fill="#99999b" d="M 277.5,78.5 C 277.5,82.5 277.5,86.5 277.5,90.5C 278.5,90.5 279.5,90.5 280.5,90.5C 279.432,91.4345 278.099,91.7678 276.5,91.5C 276.182,86.9677 276.515,82.6344 277.5,78.5 Z"/></g>
<g><path style="opacity:1" fill="#9e9fa1" d="M 222.5,78.5 C 222.5,88.8333 222.5,99.1667 222.5,109.5C 225.833,109.5 229.167,109.5 232.5,109.5C 229.038,110.482 225.371,110.815 221.5,110.5C 221.172,99.6536 221.506,88.9869 222.5,78.5 Z"/></g>
<g><path style="opacity:0.093" fill="#f6f6f5" d="M -0.5,92.5 C 4.83333,94.8333 4.83333,97.1667 -0.5,99.5C -0.5,98.8333 -0.5,98.1667 -0.5,97.5C 2.16667,96.5 2.16667,95.5 -0.5,94.5C -0.5,93.8333 -0.5,93.1667 -0.5,92.5 Z"/></g>
<g><path style="opacity:1" fill="#b9b9bb" d="M 425.5,82.5 C 427.054,86.5667 427.72,90.9 427.5,95.5C 426.5,95.5 425.5,95.5 424.5,95.5C 424.231,91.0685 424.564,86.7352 425.5,82.5 Z"/></g>
<g><path style="opacity:0.075" fill="#f9f9f8" d="M 532.5,91.5 C 532.5,92.1667 532.5,92.8333 532.5,93.5C 529.833,95.1667 529.833,96.8333 532.5,98.5C 532.5,99.1667 532.5,99.8333 532.5,100.5C 527.3,97.4067 527.3,94.4067 532.5,91.5 Z"/></g>
<g><path style="opacity:1" fill="#848486" d="M 253.5,78.5 C 259.5,78.5 265.5,78.5 271.5,78.5C 274.268,88.672 276.268,99.0053 277.5,109.5C 273.833,109.5 270.167,109.5 266.5,109.5C 266.74,106.421 266.407,103.421 265.5,100.5C 263.955,99.5481 262.288,99.2148 260.5,99.5C 259.949,102.807 259.616,106.14 259.5,109.5C 255.833,109.5 252.167,109.5 248.5,109.5C 250.076,99.1314 251.743,88.7981 253.5,78.5 Z"/></g>
<g><path style="opacity:1" fill="#b9b9bb" d="M 261.5,83.5 C 262.649,83.7911 263.316,84.6244 263.5,86C 264.256,89.1248 264.589,92.2914 264.5,95.5C 263.5,95.5 262.5,95.5 261.5,95.5C 261.5,91.5 261.5,87.5 261.5,83.5 Z"/></g>
<g><path style="opacity:1" fill="#bbbbbd" d="M 386.5,78.5 C 387.317,80.9686 387.817,83.6353 388,86.5C 388.183,83.6353 388.683,80.9686 389.5,78.5C 389.5,82.5 389.5,86.5 389.5,90.5C 391.167,90.5 392.833,90.5 394.5,90.5C 394.5,92.8333 394.5,95.1667 394.5,97.5C 392.833,97.5 391.167,97.5 389.5,97.5C 390.568,96.5655 391.901,96.2322 393.5,96.5C 393.785,94.712 393.452,93.0453 392.5,91.5C 391.289,92.2739 391.289,93.1072 392.5,94C 390.347,94.0995 388.681,94.9328 387.5,96.5C 385.901,96.2322 384.568,96.5655 383.5,97.5C 378.125,97.8282 372.792,97.4948 367.5,96.5C 365.482,92.5187 366.648,90.5187 371,90.5C 372.973,90.3094 374.473,90.976 375.5,92.5C 379.107,93.4892 382.774,93.8226 386.5,93.5C 386.5,88.5 386.5,83.5 386.5,78.5 Z"/></g>
<g><path style="opacity:1" fill="#828284" d="M 222.5,78.5 C 228.909,78.1827 235.243,78.6827 241.5,80C 249.934,83.7449 251.601,89.4115 246.5,97C 242.124,99.1222 237.457,100.289 232.5,100.5C 232.5,103.5 232.5,106.5 232.5,109.5C 229.167,109.5 225.833,109.5 222.5,109.5C 222.5,99.1667 222.5,88.8333 222.5,78.5 Z"/></g>
<g><path style="opacity:1" fill="#bfbfc1" d="M 231.5,91.5 C 234.206,91.5751 236.873,91.9084 239.5,92.5C 239.719,93.675 239.386,94.675 238.5,95.5C 236.253,96.3742 233.92,96.7076 231.5,96.5C 231.5,94.8333 231.5,93.1667 231.5,91.5 Z"/></g>
<g><path style="opacity:1" fill="#9f9fa1" d="M 383.5,97.5 C 384.568,96.5655 385.901,96.2322 387.5,96.5C 387.818,101.032 387.485,105.366 386.5,109.5C 386.5,105.5 386.5,101.5 386.5,97.5C 385.5,97.5 384.5,97.5 383.5,97.5 Z"/></g>
<g><path style="opacity:1" fill="#828284" d="M 277.5,78.5 C 286.167,78.5 294.833,78.5 303.5,78.5C 303.5,82.5 303.5,86.5 303.5,90.5C 300.102,90.1796 296.768,90.513 293.5,91.5C 295.14,97.3932 296.14,103.393 296.5,109.5C 292.5,109.5 288.5,109.5 284.5,109.5C 284.5,106.833 284.5,104.167 284.5,101.5C 285.423,97.9359 285.756,94.2693 285.5,90.5C 283.833,90.5 282.167,90.5 280.5,90.5C 279.5,90.5 278.5,90.5 277.5,90.5C 277.5,86.5 277.5,82.5 277.5,78.5 Z"/></g>
<g><path style="opacity:1" fill="#838486" d="M 386.5,78.5 C 386.5,83.5 386.5,88.5 386.5,93.5C 382.774,93.8226 379.107,93.4892 375.5,92.5C 374.473,90.976 372.973,90.3094 371,90.5C 366.648,90.5187 365.482,92.5187 367.5,96.5C 372.792,97.4948 378.125,97.8282 383.5,97.5C 384.5,97.5 385.5,97.5 386.5,97.5C 386.5,101.5 386.5,105.5 386.5,109.5C 379.93,110.893 373.263,110.726 366.5,109C 359.196,104.892 356.363,98.7254 358,90.5C 359.177,79.414 364.843,76.0807 375,80.5C 375.192,82.5767 375.692,84.5767 376.5,86.5C 377.48,83.9135 377.813,81.2469 377.5,78.5C 380.5,78.5 383.5,78.5 386.5,78.5 Z"/></g>
<g><path style="opacity:1" fill="#838385" d="M 305.5,78.5 C 313.354,77.9114 321.021,78.7447 328.5,81C 332.277,83.9547 333.443,87.788 332,92.5C 329.97,94.7375 327.47,96.2375 324.5,97C 331.416,98.4203 334.082,102.587 332.5,109.5C 328.5,109.5 324.5,109.5 320.5,109.5C 320.81,106.287 320.477,103.287 319.5,100.5C 318.817,98.8235 317.483,98.1568 315.5,98.5C 315.5,100.5 315.5,102.5 315.5,104.5C 315.5,106.167 315.5,107.833 315.5,109.5C 312.167,109.5 308.833,109.5 305.5,109.5C 305.5,99.1667 305.5,88.8333 305.5,78.5 Z"/></g>
<g><path style="opacity:1" fill="#b7b7b9" d="M 314.5,91.5 C 317.807,91.0632 320.807,91.7298 323.5,93.5C 323.291,94.086 322.957,94.586 322.5,95C 319.854,95.4974 317.187,95.6641 314.5,95.5C 314.5,94.1667 314.5,92.8333 314.5,91.5 Z"/></g>
<g><path style="opacity:1" fill="#a1a1a3" d="M 394.5,90.5 C 395.473,92.9479 395.806,95.6146 395.5,98.5C 393.5,98.5 391.5,98.5 389.5,98.5C 389.5,102.167 389.5,105.833 389.5,109.5C 388.167,105.5 388.167,101.5 389.5,97.5C 391.167,97.5 392.833,97.5 394.5,97.5C 394.5,95.1667 394.5,92.8333 394.5,90.5 Z"/></g>
<g><path style="opacity:0.088" fill="#f7f7f6" d="M -0.5,103.5 C 4.83333,105.833 4.83333,108.167 -0.5,110.5C -0.5,109.833 -0.5,109.167 -0.5,108.5C 1.98452,107.26 1.98452,106.26 -0.5,105.5C -0.5,104.833 -0.5,104.167 -0.5,103.5 Z"/></g>
<g><path style="opacity:0.079" fill="#f9f8f8" d="M 532.5,102.5 C 532.5,103.167 532.5,103.833 532.5,104.5C 529.833,106.167 529.833,107.833 532.5,109.5C 532.5,110.167 532.5,110.833 532.5,111.5C 527.3,108.407 527.3,105.407 532.5,102.5 Z"/></g>
<g><path style="opacity:1" fill="#7d7d7f" d="M 159.5,107.5 C 160.817,110.23 160.817,113.063 159.5,116C 134.663,116.83 109.997,116.663 85.5,115.5C 109.836,115.667 134.169,115.5 158.5,115C 139.969,114.814 121.469,114.314 103,113.5C 99.8951,114.298 96.8951,114.632 94,114.5C 92.2725,114.101 90.7725,113.434 89.5,112.5C 88.6091,111.739 87.9424,110.739 87.5,109.5C 92.2164,108.225 96.883,108.225 101.5,109.5C 101.5,110.5 101.5,111.5 101.5,112.5C 103.179,112.715 104.179,112.048 104.5,110.5C 113.27,109.195 122.27,108.528 131.5,108.5C 140.167,108.667 148.833,108.833 157.5,109C 159.123,112.054 159.79,111.554 159.5,107.5 Z"/></g>
<g><path style="opacity:1" fill="#a5a6a8" d="M 284.5,101.5 C 284.5,104.167 284.5,106.833 284.5,109.5C 288.5,109.5 292.5,109.5 296.5,109.5C 292.366,110.485 288.032,110.818 283.5,110.5C 283.19,107.287 283.523,104.287 284.5,101.5 Z"/></g>
<g><path style="opacity:1" fill="#a6a7a9" d="M 305.5,78.5 C 305.5,88.8333 305.5,99.1667 305.5,109.5C 308.833,109.5 312.167,109.5 315.5,109.5C 315.5,107.833 315.5,106.167 315.5,104.5C 316.461,106.265 316.795,108.265 316.5,110.5C 312.5,110.5 308.5,110.5 304.5,110.5C 304.172,99.6536 304.506,88.9869 305.5,78.5 Z"/></g>
<g><path style="opacity:1" fill="#a5a6a8" d="M 319.5,100.5 C 320.477,103.287 320.81,106.287 320.5,109.5C 324.5,109.5 328.5,109.5 332.5,109.5C 328.366,110.485 324.032,110.818 319.5,110.5C 319.5,107.167 319.5,103.833 319.5,100.5 Z"/></g>
<g><path style="opacity:1" fill="#aaabad" d="M 409.5,97.5 C 410.167,100.5 410.833,103.5 411.5,106.5C 411.5,107.5 411.5,108.5 411.5,109.5C 415.167,109.5 418.833,109.5 422.5,109.5C 411.5,110.833 400.5,110.833 389.5,109.5C 396.167,109.5 402.833,109.5 409.5,109.5C 409.5,105.5 409.5,101.5 409.5,97.5 Z"/></g>
<g><path style="opacity:1" fill="#bcbdbf" d="M 89.5,112.5 C 89.6395,110.663 90.3061,110.33 91.5,111.5C 91.0431,112.298 90.3764,112.631 89.5,112.5 Z"/></g>
<g><path style="opacity:1" fill="#a2a2a4" d="M 95.5,109.5 C 96.5,109.5 97.5,109.5 98.5,109.5C 98.5,110.5 98.5,111.5 98.5,112.5C 97.5,112.5 96.5,112.5 95.5,112.5C 95.5,111.5 95.5,110.5 95.5,109.5 Z"/></g>
<g><path style="opacity:1" fill="#aeaeb0" d="M 101.5,109.5 C 102.791,109.263 103.791,109.596 104.5,110.5C 104.179,112.048 103.179,112.715 101.5,112.5C 101.5,111.5 101.5,110.5 101.5,109.5 Z"/></g>
<g><path style="opacity:1" fill="#767779" d="M 159.5,107.5 C 159.79,111.554 159.123,112.054 157.5,109C 148.833,108.833 140.167,108.667 131.5,108.5C 122.27,108.528 113.27,109.195 104.5,110.5C 103.791,109.596 102.791,109.263 101.5,109.5C 96.883,108.225 92.2164,108.225 87.5,109.5C 87.9424,110.739 88.6091,111.739 89.5,112.5C 90.7725,113.434 92.2725,114.101 94,114.5C 96.8951,114.632 99.8951,114.298 103,113.5C 121.469,114.314 139.969,114.814 158.5,115C 134.169,115.5 109.836,115.667 85.5,115.5C 84.1834,112.77 84.1834,109.937 85.5,107C 110.337,106.17 135.003,106.337 159.5,107.5 Z"/></g>
<g><path style="opacity:0.09" fill="#f8f7f7" d="M -0.5,114.5 C 4.81459,116.877 4.81459,119.211 -0.5,121.5C -0.5,120.833 -0.5,120.167 -0.5,119.5C 2.16667,118.5 2.16667,117.5 -0.5,116.5C -0.5,115.833 -0.5,115.167 -0.5,114.5 Z"/></g>
<g><path style="opacity:0.161" fill="#f7f6f5" d="M 532.5,113.5 C 532.5,114.167 532.5,114.833 532.5,115.5C 528.5,117.167 528.5,118.833 532.5,120.5C 532.5,121.167 532.5,121.833 532.5,122.5C 527.247,119.745 527.247,116.745 532.5,113.5 Z"/></g>
<g><path style="opacity:1" fill="#bcbcbe" d="M 305.5,127.5 C 300.5,127.5 295.5,127.5 290.5,127.5C 289.506,137.653 289.172,147.986 289.5,158.5C 288.691,156.708 288.191,154.708 288,152.5C 287.667,152.167 287.333,151.833 287,151.5C 286.583,152.756 285.75,153.423 284.5,153.5C 291.025,141.203 288.025,132.536 275.5,127.5C 278.62,127.156 281.453,127.823 284,129.5C 285.713,128.863 285.879,127.863 284.5,126.5C 285.333,126.167 286.167,125.833 287,125.5C 293.324,126.066 299.491,126.732 305.5,127.5 Z"/></g>
<g><path style="opacity:1" fill="#a5a5a7" d="M 233.5,127.5 C 239.31,126.51 245.31,126.177 251.5,126.5C 251.5,127.833 251.5,129.167 251.5,130.5C 250.596,129.791 250.263,128.791 250.5,127.5C 244.833,127.5 239.167,127.5 233.5,127.5 Z"/></g>
<g><path style="opacity:0.097" fill="#f8f7f6" d="M -0.5,125.5 C 4.81459,127.789 4.81459,130.123 -0.5,132.5C -0.5,131.833 -0.5,131.167 -0.5,130.5C 2.16667,129.5 2.16667,128.5 -0.5,127.5C -0.5,126.833 -0.5,126.167 -0.5,125.5 Z"/></g>
<g><path style="opacity:0.069" fill="#fbfafa" d="M 532.5,124.5 C 532.5,125.167 532.5,125.833 532.5,126.5C 529.833,128.167 529.833,129.833 532.5,131.5C 532.5,132.167 532.5,132.833 532.5,133.5C 527.167,130.5 527.167,127.5 532.5,124.5 Z"/></g>
<g><path style="opacity:1" fill="#848486" d="M 290.5,127.5 C 295.5,127.5 300.5,127.5 305.5,127.5C 308.911,128.36 312.244,129.526 315.5,131C 318.256,134.963 318.089,138.796 315,142.5C 312.757,143.971 310.257,144.971 307.5,145.5C 315.403,146.396 318.736,150.729 317.5,158.5C 313.167,158.5 308.833,158.5 304.5,158.5C 304.5,155.5 304.5,152.5 304.5,149.5C 303.952,146.916 302.285,145.916 299.5,146.5C 299.552,150.198 299.886,153.865 300.5,157.5C 297.167,157.5 293.833,157.5 290.5,157.5C 290.5,147.5 290.5,137.5 290.5,127.5 Z"/></g>
<g><path style="opacity:1" fill="#bcbcbe" d="M 339.5,127.5 C 341.156,128.146 342.823,128.813 344.5,129.5C 345.739,129.058 346.739,128.391 347.5,127.5C 344.754,137.634 342.754,147.968 341.5,158.5C 340.833,158.5 340.167,158.5 339.5,158.5C 339.5,154.5 339.5,150.5 339.5,146.5C 337.833,146.5 336.167,146.5 334.5,146.5C 334.5,144.167 334.5,141.833 334.5,139.5C 336.167,139.5 337.833,139.5 339.5,139.5C 339.5,135.5 339.5,131.5 339.5,127.5 Z"/></g>
<g><path style="opacity:1" fill="#848486" d="M 413.5,126.5 C 428.826,125.991 435.66,133.325 434,148.5C 428.917,157.091 421.417,160.258 411.5,158C 402.559,152.483 400.059,144.649 404,134.5C 405.141,132.391 406.641,130.558 408.5,129C 410.653,128.901 412.319,128.067 413.5,126.5 Z"/></g>
<g><path style="opacity:1" fill="#919193" d="M 159.5,119.5 C 160.496,133.323 160.829,147.323 160.5,161.5C 159.167,161.5 157.833,161.5 156.5,161.5C 156.5,161.167 156.5,160.833 156.5,160.5C 157.5,160.5 158.5,160.5 159.5,160.5C 159.5,146.833 159.5,133.167 159.5,119.5 Z"/></g>
<g><path style="opacity:1" fill="#9a9a9c" d="M 290.5,127.5 C 290.5,137.5 290.5,147.5 290.5,157.5C 293.833,157.5 297.167,157.5 300.5,157.5C 299.886,153.865 299.552,150.198 299.5,146.5C 302.285,145.916 303.952,146.916 304.5,149.5C 303.518,148.859 302.518,148.193 301.5,147.5C 301.167,148.333 300.833,149.167 300.5,150C 301.216,152.792 301.549,155.626 301.5,158.5C 297.5,158.5 293.5,158.5 289.5,158.5C 289.172,147.986 289.506,137.653 290.5,127.5 Z"/></g>
<g><path style="opacity:1" fill="#7c7c7e" d="M 159.5,119.5 C 159.5,133.167 159.5,146.833 159.5,160.5C 158.5,160.5 157.5,160.5 156.5,160.5C 149.985,159.289 143.651,157.622 137.5,155.5C 137.475,160.438 138.475,165.104 140.5,169.5C 121.833,169.5 103.167,169.5 84.5,169.5C 84.5,152.833 84.5,136.167 84.5,119.5C 109.598,118.173 134.598,118.173 159.5,119.5 Z"/></g>
<g><path style="opacity:1" fill="#919193" d="M 386.5,158.5 C 386.5,157.5 386.5,156.5 386.5,155.5C 390.514,157.334 394.847,158.001 399.5,157.5C 399.5,147.5 399.5,137.5 399.5,127.5C 396.167,127.5 392.833,127.5 389.5,127.5C 389.5,130.167 389.5,132.833 389.5,135.5C 388.523,132.713 388.19,129.713 388.5,126.5C 392.5,126.5 396.5,126.5 400.5,126.5C 400.5,137.167 400.5,147.833 400.5,158.5C 395.833,158.5 391.167,158.5 386.5,158.5 Z"/></g>
<g><path style="opacity:1" fill="#848486" d="M 275.5,127.5 C 288.025,132.536 291.025,141.203 284.5,153.5C 282.351,155.746 279.684,157.246 276.5,158C 270.833,158.667 265.167,158.667 259.5,158C 258.514,147.916 258.181,137.749 258.5,127.5C 264.167,127.5 269.833,127.5 275.5,127.5 Z"/></g>
<g><path style="opacity:0.081" fill="#f9f9f8" d="M -0.5,136.5 C 4.68488,139.118 4.68488,141.451 -0.5,143.5C -0.5,142.833 -0.5,142.167 -0.5,141.5C 2.16667,140.5 2.16667,139.5 -0.5,138.5C -0.5,137.833 -0.5,137.167 -0.5,136.5 Z"/></g>
<g><path style="opacity:1" fill="#848486" d="M 347.5,127.5 C 353.5,127.5 359.5,127.5 365.5,127.5C 367.025,137.931 369.025,148.264 371.5,158.5C 367.818,158.665 364.152,158.499 360.5,158C 359.39,154.951 358.723,151.784 358.5,148.5C 356.833,148.5 355.167,148.5 353.5,148.5C 353.784,151.777 353.451,154.943 352.5,158C 348.848,158.499 345.182,158.665 341.5,158.5C 342.754,147.968 344.754,137.634 347.5,127.5 Z"/></g>
<g><path style="opacity:0.133" fill="#f9f8f7" d="M 532.5,135.5 C 532.5,136.167 532.5,136.833 532.5,137.5C 528.5,139.167 528.5,140.833 532.5,142.5C 532.5,143.167 532.5,143.833 532.5,144.5C 527.247,141.745 527.247,138.745 532.5,135.5 Z"/></g>
<g><path style="opacity:1" fill="#bebec0" d="M 355.5,132.5 C 357.136,136.21 357.802,140.21 357.5,144.5C 356.5,144.5 355.5,144.5 354.5,144.5C 354.505,140.466 354.838,136.466 355.5,132.5 Z"/></g>
<g><path style="opacity:1" fill="#bdbdbf" d="M 268.5,139.5 C 272.122,138.924 275.122,139.924 277.5,142.5C 275.464,144.984 272.798,145.984 269.5,145.5C 269.167,143.5 268.833,141.5 268.5,139.5 Z"/></g>
<g><path style="opacity:1" fill="#bdbdbf" d="M 299.5,140.5 C 302.167,140.5 304.833,140.5 307.5,140.5C 307.5,141.5 307.5,142.5 307.5,143.5C 304.833,143.5 302.167,143.5 299.5,143.5C 299.5,142.5 299.5,141.5 299.5,140.5 Z"/></g>
<g><path style="opacity:1" fill="#a5a5a7" d="M 321.5,139.5 C 322.568,138.566 323.901,138.232 325.5,138.5C 325.5,141.167 325.5,143.833 325.5,146.5C 323.5,146.5 321.5,146.5 319.5,146.5C 320.919,145.549 322.585,145.216 324.5,145.5C 324.5,143.5 324.5,141.5 324.5,139.5C 323.5,139.5 322.5,139.5 321.5,139.5 Z"/></g>
<g><path style="opacity:1" fill="#848486" d="M 233.5,127.5 C 239.167,127.5 244.833,127.5 250.5,127.5C 250.263,128.791 250.596,129.791 251.5,130.5C 253.479,139.759 255.479,149.092 257.5,158.5C 253.833,158.5 250.167,158.5 246.5,158.5C 246.11,155.161 245.61,151.827 245,148.5C 243.301,147.594 241.467,147.261 239.5,147.5C 239.5,151.167 239.5,154.833 239.5,158.5C 235.5,158.5 231.5,158.5 227.5,158.5C 229.139,147.969 231.139,137.636 233.5,127.5 Z"/></g>
<g><path style="opacity:1" fill="#b9b9bb" d="M 241.5,132.5 C 243.13,136.226 244.13,140.226 244.5,144.5C 243.167,144.5 241.833,144.5 240.5,144.5C 241.021,140.519 241.354,136.519 241.5,132.5 Z"/></g>
<g><path style="opacity:1" fill="#c2c2c4" d="M 413.5,139.5 C 417.853,138.799 421.52,139.966 424.5,143C 424.095,143.945 423.428,144.612 422.5,145C 419.5,145.667 416.5,145.667 413.5,145C 410.982,143.19 410.982,141.357 413.5,139.5 Z"/></g>
<g><path style="opacity:1" fill="#bdbdbf" d="M 121.5,135.5 C 122.496,135.414 123.329,135.748 124,136.5C 124.543,138.631 125.376,140.631 126.5,142.5C 127.432,140.234 128.766,138.234 130.5,136.5C 130.833,137.5 131.167,138.5 131.5,139.5C 129.905,142.959 128.905,146.626 128.5,150.5C 127.325,150.719 126.325,150.386 125.5,149.5C 124.752,147.668 123.752,146.001 122.5,144.5C 120.99,146.322 119.657,148.322 118.5,150.5C 116.078,146.925 114.412,142.925 113.5,138.5C 113.833,137.833 114.167,137.167 114.5,136.5C 115.833,138.5 117.167,140.5 118.5,142.5C 119.952,140.359 120.952,138.025 121.5,135.5 Z"/></g>
<g><path style="opacity:1" fill="#bcbcbe" d="M 92.5,135.5 C 93.5,135.5 94.5,135.5 95.5,135.5C 96.5939,142.665 98.2605,142.999 100.5,136.5C 101.325,135.614 102.325,135.281 103.5,135.5C 104.707,142.638 106.374,142.972 108.5,136.5C 109.325,135.614 110.325,135.281 111.5,135.5C 109.774,140.352 108.441,145.352 107.5,150.5C 106.5,150.5 105.5,150.5 104.5,150.5C 104.868,147.944 104.034,145.944 102,144.5C 99.9655,145.944 99.1322,147.944 99.5,150.5C 98.5,150.5 97.5,150.5 96.5,150.5C 95.1344,145.484 93.801,140.484 92.5,135.5 Z"/></g>
<g><path style="opacity:1" fill="#bbbbbd" d="M 149.5,135.5 C 150.5,135.5 151.5,135.5 152.5,135.5C 151.414,140.612 150.08,145.612 148.5,150.5C 147.5,150.5 146.5,150.5 145.5,150.5C 145.167,148.5 144.833,146.5 144.5,144.5C 143.5,144.5 142.5,144.5 141.5,144.5C 141.643,146.262 141.309,147.929 140.5,149.5C 139.5,150.833 138.5,150.833 137.5,149.5C 135.587,145.35 134.753,141.017 135,136.5C 136.592,138.493 138.092,140.493 139.5,142.5C 141.797,134.564 144.297,134.564 147,142.5C 148.523,140.431 149.357,138.097 149.5,135.5 Z"/></g>
<g><path style="opacity:0.082" fill="#f9f8f8" d="M -0.5,147.5 C 4.81459,149.877 4.81459,152.211 -0.5,154.5C -0.5,153.833 -0.5,153.167 -0.5,152.5C 1.98452,151.74 1.98452,150.74 -0.5,149.5C -0.5,148.833 -0.5,148.167 -0.5,147.5 Z"/></g>
<g><path style="opacity:1" fill="#838385" d="M 339.5,127.5 C 339.5,131.5 339.5,135.5 339.5,139.5C 337.833,139.5 336.167,139.5 334.5,139.5C 334.5,141.833 334.5,144.167 334.5,146.5C 336.167,146.5 337.833,146.5 339.5,146.5C 339.5,150.5 339.5,154.5 339.5,158.5C 332.833,158.5 326.167,158.5 319.5,158.5C 319.5,154.5 319.5,150.5 319.5,146.5C 321.5,146.5 323.5,146.5 325.5,146.5C 325.5,143.833 325.5,141.167 325.5,138.5C 323.901,138.232 322.568,138.566 321.5,139.5C 319.577,135.971 318.911,131.971 319.5,127.5C 326.167,127.5 332.833,127.5 339.5,127.5 Z"/></g>
<g><path style="opacity:0.141" fill="#f5f4f4" d="M 532.5,146.5 C 532.5,147.167 532.5,147.833 532.5,148.5C 528.5,150.167 528.5,151.833 532.5,153.5C 532.5,154.167 532.5,154.833 532.5,155.5C 525.873,152.593 525.873,149.593 532.5,146.5 Z"/></g>
<g><path style="opacity:1" fill="#b1b1b3" d="M 386.5,155.5 C 386.5,156.5 386.5,157.5 386.5,158.5C 385.833,158.5 385.167,158.5 384.5,158.5C 384.806,155.615 384.473,152.948 383.5,150.5C 383.29,145.281 382.623,140.115 381.5,135C 381.833,133.833 382.167,132.667 382.5,131.5C 384.131,139.422 385.465,147.422 386.5,155.5 Z"/></g>
<g><path style="opacity:1" fill="#838385" d="M 373.5,127.5 C 377.833,127.5 382.167,127.5 386.5,127.5C 387.281,135.521 388.281,143.521 389.5,151.5C 390.177,146.208 390.177,140.874 389.5,135.5C 389.5,132.833 389.5,130.167 389.5,127.5C 392.833,127.5 396.167,127.5 399.5,127.5C 399.5,137.5 399.5,147.5 399.5,157.5C 394.847,158.001 390.514,157.334 386.5,155.5C 385.465,147.422 384.131,139.422 382.5,131.5C 382.167,132.667 381.833,133.833 381.5,135C 382.623,140.115 383.29,145.281 383.5,150.5C 383.5,152.833 383.5,155.167 383.5,157.5C 380.167,157.5 376.833,157.5 373.5,157.5C 373.5,147.5 373.5,137.5 373.5,127.5 Z"/></g>
<g><path style="opacity:1" fill="#97989a" d="M 373.5,127.5 C 373.5,137.5 373.5,147.5 373.5,157.5C 376.833,157.5 380.167,157.5 383.5,157.5C 383.5,155.167 383.5,152.833 383.5,150.5C 384.473,152.948 384.806,155.615 384.5,158.5C 380.5,158.5 376.5,158.5 372.5,158.5C 372.172,147.986 372.506,137.653 373.5,127.5 Z"/></g>
<g><path style="opacity:0.09" fill="#f8f8f7" d="M -0.5,158.5 C 4.81459,160.877 4.81459,163.211 -0.5,165.5C -0.5,164.833 -0.5,164.167 -0.5,163.5C 1.98452,162.74 1.98452,161.74 -0.5,160.5C -0.5,159.833 -0.5,159.167 -0.5,158.5 Z"/></g>
<g><path style="opacity:0.093" fill="#f9f8f8" d="M 532.5,157.5 C 532.5,158.167 532.5,158.833 532.5,159.5C 528.5,161.167 528.5,162.833 532.5,164.5C 532.5,165.167 532.5,165.833 532.5,166.5C 527.247,163.745 527.247,160.745 532.5,157.5 Z"/></g>
<g><path style="opacity:1" fill="#7a7a7c" d="M 161.5,165.5 C 162.586,165.62 163.253,166.287 163.5,167.5C 162.477,169.003 161.477,170.503 160.5,172C 161.546,175.051 163.379,177.551 166,179.5C 166.417,182.284 165.25,184.284 162.5,185.5C 159.801,182.964 156.968,180.631 154,178.5C 152.286,179.076 151.119,180.243 150.5,182C 149.251,182.74 148.251,182.573 147.5,181.5C 144.656,175.144 142.656,168.478 141.5,161.5C 142.167,161.167 142.833,160.833 143.5,160.5C 149.409,162.582 155.409,164.249 161.5,165.5 Z"/></g>
<g><path style="opacity:1" fill="#b9b9bb" d="M 84.5,119.5 C 84.5,136.167 84.5,152.833 84.5,169.5C 103.167,169.5 121.833,169.5 140.5,169.5C 138.475,165.104 137.475,160.438 137.5,155.5C 143.651,157.622 149.985,159.289 156.5,160.5C 156.5,160.833 156.5,161.167 156.5,161.5C 155.127,161.343 153.793,161.51 152.5,162C 155.718,162.9 158.718,164.067 161.5,165.5C 155.409,164.249 149.409,162.582 143.5,160.5C 142.833,160.833 142.167,161.167 141.5,161.5C 142.656,168.478 144.656,175.144 147.5,181.5C 146.259,179.069 145.092,179.069 144,181.5C 143.667,181.167 143.333,180.833 143,180.5C 142.667,181.5 142.333,182.5 142,183.5C 140.763,179.792 140.263,176.125 140.5,172.5C 121.842,171.667 103.176,171.167 84.5,171C 83.1694,153.736 83.1694,136.569 84.5,119.5 Z"/></g>
<g><path style="opacity:0.08" fill="#f8f8f8" d="M 532.5,169.5 C 532.5,169.833 532.5,170.167 532.5,170.5C 529.833,172.167 529.833,173.833 532.5,175.5C 532.5,176.167 532.5,176.833 532.5,177.5C 530.983,177.489 529.816,176.823 529,175.5C 527.878,172.128 529.045,170.128 532.5,169.5 Z"/></g>
<g><path style="opacity:0.071" fill="#f7f6f6" d="M -0.5,169.5 C 4.79538,172.052 4.79538,174.719 -0.5,177.5C -0.5,176.5 -0.5,175.5 -0.5,174.5C 1.98452,173.74 1.98452,172.74 -0.5,171.5C -0.5,170.833 -0.5,170.167 -0.5,169.5 Z"/></g>
<g><path style="opacity:0.09" fill="#faf9f8" d="M 532.5,180.5 C 532.5,181.167 532.5,181.833 532.5,182.5C 529.833,183.833 529.833,185.167 532.5,186.5C 532.5,187.167 532.5,187.833 532.5,188.5C 531.279,187.972 530.113,187.305 529,186.5C 527.878,183.128 529.045,181.128 532.5,180.5 Z"/></g>
<g><path style="opacity:0.063" fill="#f7f6f5" d="M -0.5,180.5 C 4.70947,182.949 4.70947,185.616 -0.5,188.5C -0.5,187.833 -0.5,187.167 -0.5,186.5C 2.16667,185.167 2.16667,183.833 -0.5,182.5C -0.5,181.833 -0.5,181.167 -0.5,180.5 Z"/></g>
<g><path style="opacity:0.077" fill="#f6f5f5" d="M -0.5,191.5 C 4.79538,194.052 4.79538,196.719 -0.5,199.5C -0.5,198.5 -0.5,197.5 -0.5,196.5C 1.98452,195.74 1.98452,194.74 -0.5,193.5C -0.5,192.833 -0.5,192.167 -0.5,191.5 Z"/></g>
<g><path style="opacity:1" fill="#b7b8ba" d="M 425.5,203.5 C 425.029,205.288 424.696,207.122 424.5,209C 424.608,210.681 425.275,211.848 426.5,212.5C 425.993,213.859 424.993,214.859 423.5,215.5C 424.167,215.833 424.833,216.167 425.5,216.5C 425.192,217.308 424.692,217.975 424,218.5C 422.601,215.961 421.101,214.294 419.5,213.5C 420.969,210.745 422.302,207.745 423.5,204.5C 421.167,203.167 418.833,203.167 416.5,204.5C 418.27,207.193 418.937,210.193 418.5,213.5C 417.5,213.5 416.5,213.5 415.5,213.5C 415.5,210.167 415.5,206.833 415.5,203.5C 413.876,203.36 412.71,204.027 412,205.5C 411.29,204.027 410.124,203.36 408.5,203.5C 408.5,206.5 408.5,209.5 408.5,212.5C 406.059,213.756 403.726,213.756 401.5,212.5C 403.467,212.739 405.301,212.406 407,211.5C 407.497,208.854 407.664,206.187 407.5,203.5C 405.5,203.5 403.5,203.5 401.5,203.5C 409.317,199.819 417.317,199.819 425.5,203.5 Z"/></g>
<g><path style="opacity:1" fill="#a4a4a6" d="M 226.5,203.5 C 224.142,203.253 222.142,203.919 220.5,205.5C 220.414,204.504 220.748,203.671 221.5,203C 223.387,202.22 225.054,202.387 226.5,203.5 Z"/></g>
<g><path style="opacity:0.08" fill="#f7f6f6" d="M 532.5,191.5 C 532.5,192.167 532.5,192.833 532.5,193.5C 529.978,195.002 529.978,196.335 532.5,197.5C 532.5,199.833 532.5,202.167 532.5,204.5C 529.833,205.833 529.833,207.167 532.5,208.5C 532.5,209.5 532.5,210.5 532.5,211.5C 527.55,208.511 527.217,205.011 531.5,201C 530.277,199.28 529.277,197.447 528.5,195.5C 528.848,193.152 530.182,191.818 532.5,191.5 Z"/></g>
<g><path style="opacity:1" fill="#838385" d="M 419.5,213.5 C 419.167,213.5 418.833,213.5 418.5,213.5C 418.937,210.193 418.27,207.193 416.5,204.5C 418.833,203.167 421.167,203.167 423.5,204.5C 422.302,207.745 420.969,210.745 419.5,213.5 Z"/></g>
<g><path style="opacity:0.08" fill="#fbfafa" d="M -0.5,202.5 C 3.5,205.167 3.5,207.833 -0.5,210.5C -0.5,209.833 -0.5,209.167 -0.5,208.5C 0.833333,207.167 0.833333,205.833 -0.5,204.5C -0.5,203.833 -0.5,203.167 -0.5,202.5 Z"/></g>
<g><path style="opacity:1" fill="#878789" d="M 218.5,212.5 C 216.5,212.5 214.5,212.5 212.5,212.5C 212.5,209.167 212.5,205.833 212.5,202.5C 214.467,202.261 216.301,202.594 218,203.5C 218.498,206.482 218.665,209.482 218.5,212.5 Z"/></g>
<g><path style="opacity:1" fill="#848486" d="M 325.5,203.5 C 327.833,203.5 330.167,203.5 332.5,203.5C 331.763,206.238 331.763,208.905 332.5,211.5C 332.267,212.932 331.6,213.432 330.5,213C 329.118,208.295 328.451,208.461 328.5,213.5C 327.5,213.5 326.5,213.5 325.5,213.5C 325.5,210.167 325.5,206.833 325.5,203.5 Z"/></g>
<g><path style="opacity:1" fill="#7a7a7c" d="M 361.5,203.5 C 364.082,203.025 366.082,203.692 367.5,205.5C 365.938,207.372 364.938,209.705 364.5,212.5C 363.745,209.348 362.745,206.348 361.5,203.5 Z"/></g>
<g><path style="opacity:1" fill="#88888a" d="M 394.5,202.5 C 395.833,202.5 397.167,202.5 398.5,202.5C 398.762,203.978 398.429,205.311 397.5,206.5C 395.984,205.196 395.318,205.696 395.5,208C 395.667,208.833 395.833,209.667 396,210.5C 397.183,209.269 398.349,209.269 399.5,210.5C 395.732,214.8 393.399,213.966 392.5,208C 392.758,205.991 393.425,204.157 394.5,202.5 Z"/></g>
<g><path style="opacity:1" fill="#858688" d="M 237.5,202.5 C 239.977,202.051 241.977,202.717 243.5,204.5C 241.73,207.193 241.063,210.193 241.5,213.5C 240.5,213.5 239.5,213.5 238.5,213.5C 238.937,210.193 238.27,207.193 236.5,204.5C 236.863,203.817 237.196,203.15 237.5,202.5 Z"/></g>
<g><path style="opacity:1" fill="#838486" d="M 275.5,203.5 C 275.08,205.094 274.414,206.594 273.5,208C 273.95,209.285 274.617,210.452 275.5,211.5C 274.575,212.562 273.575,212.562 272.5,211.5C 271.58,210.933 271.246,211.599 271.5,213.5C 270.5,213.5 269.5,213.5 268.5,213.5C 268.5,210.167 268.5,206.833 268.5,203.5C 270.124,203.36 271.29,204.027 272,205.5C 272.816,204.177 273.983,203.511 275.5,203.5 Z"/></g>
<g><path style="opacity:1" fill="#828385" d="M 298.5,212.5 C 295.918,212.975 293.918,212.308 292.5,210.5C 297.579,210.218 297.746,209.218 293,207.5C 292.51,206.207 292.343,204.873 292.5,203.5C 294.833,203.5 297.167,203.5 299.5,203.5C 299.5,204.5 299.5,205.5 299.5,206.5C 298.448,206.351 297.448,206.517 296.5,207C 298.192,208.401 298.859,210.234 298.5,212.5 Z"/></g>
<g><path style="opacity:1" fill="#a8a8aa" d="M 327.5,204.5 C 331.31,205.754 331.31,206.754 327.5,207.5C 327.5,206.5 327.5,205.5 327.5,204.5 Z"/></g>
<g><path style="opacity:1" fill="#9b9c9e" d="M 359.5,203.5 C 360.167,203.5 360.833,203.5 361.5,203.5C 362.745,206.348 363.745,209.348 364.5,212.5C 364.938,209.705 365.938,207.372 367.5,205.5C 366.735,208.096 366.401,210.763 366.5,213.5C 365.167,213.5 363.833,213.5 362.5,213.5C 362.5,211.167 362.5,208.833 362.5,206.5C 361.5,206.5 360.5,206.5 359.5,206.5C 359.5,205.5 359.5,204.5 359.5,203.5 Z"/></g>
<g><path style="opacity:1" fill="#818183" d="M 401.5,203.5 C 403.5,203.5 405.5,203.5 407.5,203.5C 407.664,206.187 407.497,208.854 407,211.5C 405.301,212.406 403.467,212.739 401.5,212.5C 400.167,209.5 400.167,206.5 401.5,203.5 Z"/></g>
<g><path style="opacity:1" fill="#87888a" d="M 210.5,206.5 C 210.975,209.082 210.308,211.082 208.5,212.5C 208.44,211.957 208.107,211.624 207.5,211.5C 206.476,212.853 205.143,213.52 203.5,213.5C 203.211,210.351 203.711,207.351 205,204.5C 207.811,202.82 209.644,203.487 210.5,206.5 Z"/></g>
<g><path style="opacity:1" fill="#88888a" d="M 262.5,202.5 C 264.167,202.5 265.833,202.5 267.5,202.5C 267.5,203.833 267.5,205.167 267.5,206.5C 263.757,206.459 263.59,207.126 267,208.5C 267.956,212.925 266.123,214.592 261.5,213.5C 261.5,212.5 261.5,211.5 261.5,210.5C 265.3,210.181 265.466,209.181 262,207.5C 261.36,205.735 261.527,204.068 262.5,202.5 Z"/></g>
<g><path style="opacity:1" fill="#a7a8aa" d="M 284.5,210.5 C 283.835,208.302 283.168,205.969 282.5,203.5C 281.516,206.428 281.183,209.428 281.5,212.5C 283.483,212.843 284.817,212.176 285.5,210.5C 286.167,208.167 286.833,205.833 287.5,203.5C 287.5,206.5 287.5,209.5 287.5,212.5C 289.483,212.843 290.817,212.176 291.5,210.5C 291.833,210.5 292.167,210.5 292.5,210.5C 293.918,212.308 295.918,212.975 298.5,212.5C 294.347,213.166 290.013,213.499 285.5,213.5C 280.778,213.492 276.445,212.825 272.5,211.5C 273.575,212.562 274.575,212.562 275.5,211.5C 274.617,210.452 273.95,209.285 273.5,208C 274.414,206.594 275.08,205.094 275.5,203.5C 275.833,203.5 276.167,203.5 276.5,203.5C 276.5,206.5 276.5,209.5 276.5,212.5C 277.5,212.5 278.5,212.5 279.5,212.5C 279.5,209.5 279.5,206.5 279.5,203.5C 281.042,202.699 282.708,202.366 284.5,202.5C 284.5,205.167 284.5,207.833 284.5,210.5 Z"/></g>
<g><path style="opacity:1" fill="#b2b2b4" d="M 403.5,205.5 C 405.256,206.552 405.923,208.219 405.5,210.5C 404.5,210.5 403.5,210.5 402.5,210.5C 402.366,208.708 402.699,207.042 403.5,205.5 Z"/></g>
<g><path style="opacity:1" fill="#89898b" d="M 415.5,213.5 C 413.054,212.797 410.72,212.463 408.5,212.5C 408.5,209.5 408.5,206.5 408.5,203.5C 410.124,203.36 411.29,204.027 412,205.5C 412.71,204.027 413.876,203.36 415.5,203.5C 415.5,206.833 415.5,210.167 415.5,213.5 Z"/></g>
<g><path style="opacity:1" fill="#808082" d="M 317.5,203.5 C 319.792,203.244 321.959,203.577 324,204.5C 325.238,207.926 324.071,209.592 320.5,209.5C 320.5,210.833 320.5,212.167 320.5,213.5C 319.5,213.5 318.5,213.5 317.5,213.5C 317.5,210.167 317.5,206.833 317.5,203.5 Z"/></g>
<g><path style="opacity:1" fill="#a4a4a6" d="M 319.5,204.5 C 323.31,205.754 323.31,206.754 319.5,207.5C 319.5,206.5 319.5,205.5 319.5,204.5 Z"/></g>
<g><path style="opacity:1" fill="#a9aaac" d="M 352.5,202.5 C 353.167,203.167 353.833,203.833 354.5,204.5C 354.5,206.833 354.5,209.167 354.5,211.5C 353.833,211.833 353.167,212.167 352.5,212.5C 352.423,211.25 351.756,210.417 350.5,210C 353.167,208.667 353.167,207.333 350.5,206C 351.973,205.29 352.64,204.124 352.5,202.5 Z"/></g>
<g><path style="opacity:1" fill="#838486" d="M 425.5,203.5 C 427.781,203.077 429.448,203.744 430.5,205.5C 431.01,208.388 430.344,210.721 428.5,212.5C 427.833,211.167 427.167,211.167 426.5,212.5C 425.275,211.848 424.608,210.681 424.5,209C 424.696,207.122 425.029,205.288 425.5,203.5 Z"/></g>
<g><path style="opacity:1" fill="#bcbcbe" d="M 426.5,206.5 C 428.465,206.948 428.798,207.948 427.5,209.5C 426.614,208.675 426.281,207.675 426.5,206.5 Z"/></g>
<g><path style="opacity:1" fill="#898a8c" d="M 432.5,211.5 C 432.5,209.5 432.5,207.5 432.5,205.5C 432.97,204.307 433.97,203.64 435.5,203.5C 438.799,202.79 442.133,202.457 445.5,202.5C 444.756,206.119 444.423,209.785 444.5,213.5C 443.167,213.5 441.833,213.5 440.5,213.5C 440.5,211.167 440.5,208.833 440.5,206.5C 438.533,206.739 436.699,206.406 435,205.5C 434.51,206.793 434.343,208.127 434.5,209.5C 435.833,209.5 437.167,209.5 438.5,209.5C 438.592,213.071 436.926,214.238 433.5,213C 432.944,212.617 432.611,212.117 432.5,211.5 Z"/></g>
<g><path style="opacity:1" fill="#828385" d="M 279.5,203.5 C 279.5,206.5 279.5,209.5 279.5,212.5C 278.5,212.5 277.5,212.5 276.5,212.5C 276.5,209.5 276.5,206.5 276.5,203.5C 277.5,202.167 278.5,202.167 279.5,203.5 Z"/></g>
<g><path style="opacity:1" fill="#7d7e80" d="M 287.5,203.5 C 288.833,205.833 290.167,208.167 291.5,210.5C 290.817,212.176 289.483,212.843 287.5,212.5C 287.5,209.5 287.5,206.5 287.5,203.5 Z"/></g>
<g><path style="opacity:1" fill="#848486" d="M 334.5,203.5 C 339.906,202.735 341.906,205.069 340.5,210.5C 341.5,210.5 342.5,210.5 343.5,210.5C 343.5,208.167 343.5,205.833 343.5,203.5C 344.5,203.5 345.5,203.5 346.5,203.5C 346.817,206.572 346.484,209.572 345.5,212.5C 343.261,214.12 341.427,213.787 340,211.5C 338.084,214.033 336.084,214.033 334,211.5C 333.278,208.739 333.445,206.073 334.5,203.5 Z"/></g>
<g><path style="opacity:1" fill="#afafb1" d="M 335.5,205.5 C 336.5,205.5 337.5,205.5 338.5,205.5C 338.5,207.167 338.5,208.833 338.5,210.5C 337.5,210.5 336.5,210.5 335.5,210.5C 335.5,208.833 335.5,207.167 335.5,205.5 Z"/></g>
<g><path style="opacity:1" fill="#858688" d="M 352.5,202.5 C 352.64,204.124 351.973,205.29 350.5,206C 353.167,207.333 353.167,208.667 350.5,210C 351.756,210.417 352.423,211.25 352.5,212.5C 348.428,214.279 346.761,212.779 347.5,208C 346.593,203.742 348.259,201.909 352.5,202.5 Z"/></g>
<g><path style="opacity:1" fill="#a1a2a4" d="M 430.5,205.5 C 431.167,205.5 431.833,205.5 432.5,205.5C 432.5,207.5 432.5,209.5 432.5,211.5C 431.844,212.278 431.011,212.944 430,213.5C 429.235,213.43 428.735,213.097 428.5,212.5C 430.344,210.721 431.01,208.388 430.5,205.5 Z"/></g>
<g><path style="opacity:1" fill="#89898b" d="M 229.5,202.5 C 231.22,204.658 232.053,207.325 232,210.5C 232.497,207.854 232.664,205.187 232.5,202.5C 233.5,202.5 234.5,202.5 235.5,202.5C 235.665,205.85 235.498,209.183 235,212.5C 233,213.833 231,213.833 229,212.5C 228.253,209.076 228.42,205.743 229.5,202.5 Z"/></g>
<g><path style="opacity:1" fill="#797a7c" d="M 284.5,210.5 C 284.833,210.5 285.167,210.5 285.5,210.5C 284.817,212.176 283.483,212.843 281.5,212.5C 281.183,209.428 281.516,206.428 282.5,203.5C 283.168,205.969 283.835,208.302 284.5,210.5 Z"/></g>
<g><path style="opacity:1" fill="#848587" d="M 359.5,203.5 C 359.5,204.5 359.5,205.5 359.5,206.5C 357.121,205.433 356.121,206.433 356.5,209.5C 357.833,209.5 359.167,209.5 360.5,209.5C 360.592,213.071 358.926,214.238 355.5,213C 354.944,212.617 354.611,212.117 354.5,211.5C 354.5,209.167 354.5,206.833 354.5,204.5C 355.919,203.549 357.585,203.216 359.5,203.5 Z"/></g>
<g><path style="opacity:1" fill="#858587" d="M 368.5,203.5 C 370.833,203.5 373.167,203.5 375.5,203.5C 375.5,204.5 375.5,205.5 375.5,206.5C 371.162,206.622 370.828,206.955 374.5,207.5C 374.5,209.5 374.5,211.5 374.5,213.5C 372.5,213.5 370.5,213.5 368.5,213.5C 368.5,212.5 368.5,211.5 368.5,210.5C 373.579,210.218 373.746,209.218 369,207.5C 368.51,206.207 368.343,204.873 368.5,203.5 Z"/></g>
<g><path style="opacity:1" fill="#828284" d="M 226.5,203.5 C 227.974,206.831 227.641,209.997 225.5,213C 223.633,213.711 222.133,213.211 221,211.5C 220.505,209.527 220.338,207.527 220.5,205.5C 222.142,203.919 224.142,203.253 226.5,203.5 Z"/></g>
<g><path style="opacity:1" fill="#afafb1" d="M 223.5,205.5 C 225.256,206.552 225.923,208.219 225.5,210.5C 224.5,210.5 223.5,210.5 222.5,210.5C 222.366,208.708 222.699,207.042 223.5,205.5 Z"/></g>
<g><path style="opacity:1" fill="#a3a3a5" d="M 210.5,206.5 C 211.167,208.5 211.833,210.5 212.5,212.5C 214.5,212.5 216.5,212.5 218.5,212.5C 215.167,213.833 211.833,213.833 208.5,212.5C 210.308,211.082 210.975,209.082 210.5,206.5 Z"/></g>
<g><path style="opacity:0.227" fill="#f6f5f5" d="M -0.5,213.5 C 4.83333,216.167 4.83333,218.833 -0.5,221.5C -0.5,220.833 -0.5,220.167 -0.5,219.5C 2.16667,218.167 2.16667,216.833 -0.5,215.5C -0.5,214.833 -0.5,214.167 -0.5,213.5 Z"/></g>
<g><path style="opacity:1" fill="#858587" d="M 81.5,214.5 C 83.9689,215.607 84.9689,217.607 84.5,220.5C 86.604,220.201 88.604,220.534 90.5,221.5C 88.0412,223.927 87.0412,226.927 87.5,230.5C 85.7231,230.214 84.0564,229.547 82.5,228.5C 80.9446,228.722 79.6113,229.389 78.5,230.5C 77.4528,229.078 77.4528,227.578 78.5,226C 77.0042,224.669 75.6709,223.169 74.5,221.5C 76.396,220.534 78.396,220.201 80.5,220.5C 80.3253,218.379 80.6586,216.379 81.5,214.5 Z"/></g>
<g><path style="opacity:1" fill="#838385" d="M 155.5,215.5 C 156.965,216.406 157.965,217.739 158.5,219.5C 160.5,220.167 162.5,220.833 164.5,221.5C 163.24,222.382 162.074,223.382 161,224.5C 160.922,226.657 160.755,228.657 160.5,230.5C 157.132,227.624 154.132,227.957 151.5,231.5C 151.113,229.269 150.947,226.936 151,224.5C 149.513,223.845 148.347,222.845 147.5,221.5C 151.64,221.264 154.307,219.264 155.5,215.5 Z"/></g>
<g><path style="opacity:0.089" fill="#f7f6f5" d="M 532.5,213.5 C 532.5,214.167 532.5,214.833 532.5,215.5C 529.833,217.167 529.833,218.833 532.5,220.5C 532.5,222.5 532.5,224.5 532.5,226.5C 529.833,228.167 529.833,229.833 532.5,231.5C 532.5,232.167 532.5,232.833 532.5,233.5C 527.55,230.511 527.217,227.011 531.5,223C 530.277,221.28 529.277,219.447 528.5,217.5C 528.848,215.152 530.182,213.818 532.5,213.5 Z"/></g>
<g><path style="opacity:1" fill="#828385" d="M 118.5,214.5 C 120.216,215.574 121.216,217.241 121.5,219.5C 123.5,220.167 125.5,220.833 127.5,221.5C 126.24,222.382 125.074,223.382 124,224.5C 123.922,226.657 123.755,228.657 123.5,230.5C 120.132,227.624 117.132,227.957 114.5,231.5C 114.113,229.269 113.947,226.936 114,224.5C 109.561,221.489 110.394,219.989 116.5,220C 117.464,218.275 118.131,216.441 118.5,214.5 Z"/></g>
<g><path style="opacity:0.22" fill="#f7f7f6" d="M -0.5,224.5 C 4.66891,227.295 4.66891,229.961 -0.5,232.5C -0.5,231.833 -0.5,231.167 -0.5,230.5C 2.16667,229.167 2.16667,227.833 -0.5,226.5C -0.5,225.833 -0.5,225.167 -0.5,224.5 Z"/></g>
<g><path style="opacity:0.093" fill="#fafaf9" d="M -0.5,235.5 C 3.5,238.167 3.5,240.833 -0.5,243.5C -0.5,242.833 -0.5,242.167 -0.5,241.5C 0.833333,240.167 0.833333,238.833 -0.5,237.5C -0.5,236.833 -0.5,236.167 -0.5,235.5 Z"/></g>
<g><path style="opacity:1" fill="#7c7d7f" d="M 480.5,50.5 C 480.823,117.862 480.49,185.196 479.5,252.5C 477.396,258.272 473.396,261.939 467.5,263.5C 333.721,263.494 199.721,263.494 65.5,263.5C 64.0413,263.567 62.7079,263.234 61.5,262.5C 61.8212,260.952 62.8212,260.285 64.5,260.5C 197.793,261.663 331.127,261.83 464.5,261C 471.332,259.008 474.999,254.508 475.5,247.5C 476.333,180.001 476.833,112.335 477,44.5C 477.333,111.167 477.667,177.833 478,244.5C 479.163,179.807 479.996,115.14 480.5,50.5 Z"/></g>
<g><path style="opacity:0.221" fill="#f9f9f9" d="M 532.5,234.5 C 532.5,235.5 532.5,236.5 532.5,237.5C 529.833,239.167 529.833,240.833 532.5,242.5C 532.5,244.167 532.5,245.833 532.5,247.5C 529.833,249.5 529.833,251.5 532.5,253.5C 532.5,254.5 532.5,255.5 532.5,256.5C 511.407,256.425 498.907,266.759 495,287.5C 493.829,288.893 492.329,289.727 490.5,290C 451.833,290.167 413.167,290.333 374.5,290.5C 262.289,290.662 149.956,290.162 37.5,289C 33.2735,268.272 20.6068,257.439 -0.5,256.5C -0.5,255.167 -0.5,253.833 -0.5,252.5C 2.16667,251.167 2.16667,249.833 -0.5,248.5C -0.5,247.833 -0.5,247.167 -0.5,246.5C 4.17434,248.805 4.50767,251.472 0.5,254.5C 21.6668,256.221 34.3334,267.388 38.5,288C 189.833,288.667 341.167,288.667 492.5,288C 494.75,283.433 496.25,278.599 497,273.5C 504.817,261.34 515.983,255.006 530.5,254.5C 529.389,253.389 528.722,252.055 528.5,250.5C 529.277,248.553 530.277,246.72 531.5,245C 527.217,240.989 527.55,237.489 532.5,234.5 Z"/></g>
<g><path style="opacity:1" fill="#aeafb1" d="M 60.5,262.5 C 60.8333,262.5 61.1667,262.5 61.5,262.5C 62.7079,263.234 64.0413,263.567 65.5,263.5C 198.332,264.5 331.332,264.833 464.5,264.5C 331.334,265.666 198.001,265.833 64.5,265C 62.6803,264.8 61.347,263.966 60.5,262.5 Z"/></g>
<g><path style="opacity:1" fill="#858688" d="M 467.5,263.5 C 466.609,264.11 465.609,264.443 464.5,264.5C 331.332,264.833 198.332,264.5 65.5,263.5C 199.721,263.494 333.721,263.494 467.5,263.5 Z"/></g>
</svg>
